<?xml version="1.0" encoding="utf-8" standalone="no"?>
<!DOCTYPE svg PUBLIC "-//W3C//DTD SVG 1.1//EN"
  "http://www.w3.org/Graphics/SVG/1.1/DTD/svg11.dtd">
<svg xmlns:xlink="http://www.w3.org/1999/xlink" width="576pt" height="432pt" viewBox="0 0 576 432" xmlns="http://www.w3.org/2000/svg" version="1.1">
 <metadata>
  <rdf:RDF xmlns:dc="http://purl.org/dc/elements/1.1/" xmlns:cc="http://creativecommons.org/ns#" xmlns:rdf="http://www.w3.org/1999/02/22-rdf-syntax-ns#">
   <cc:Work>
    <dc:type rdf:resource="http://purl.org/dc/dcmitype/StillImage"/>
    <dc:date>2024-03-18T20:44:29.586358</dc:date>
    <dc:format>image/svg+xml</dc:format>
    <dc:creator>
     <cc:Agent>
      <dc:title>Matplotlib v3.8.0, https://matplotlib.org/</dc:title>
     </cc:Agent>
    </dc:creator>
   </cc:Work>
  </rdf:RDF>
 </metadata>
 <defs>
  <style type="text/css">*{stroke-linejoin: round; stroke-linecap: butt}</style>
 </defs>
 <g id="figure_1">
  <g id="patch_1">
   <path d="M 0 432 
L 576 432 
L 576 0 
L 0 0 
z
" style="fill: #ffffff"/>
  </g>
  <g id="axes_1">
   <g id="patch_2">
    <path d="M 72 384.48 
L 518.4 384.48 
L 518.4 51.84 
L 72 51.84 
z
" style="fill: #ffffff"/>
   </g>
   <g id="patch_3">
    <path d="M 455.002662 264.508232 
L 453.269715 262.45578 
L 454.486994 262.463478 
L 456.918633 209.084151 
L 458.135912 209.091849 
L 455.704273 262.471175 
L 456.921553 262.478873 
z
" clip-path="url(#pd8cee593c2)" style="fill: #1f77b4; stroke: #000000; stroke-linejoin: miter"/>
   </g>
   <g id="patch_4">
    <path d="M 174.225798 336.679293 
L 172.383453 334.64011 
L 173.600902 334.638771 
L 172.845821 239.328669 
L 174.06327 239.327331 
L 174.818352 334.637432 
L 176.035801 334.636093 
z
" clip-path="url(#pd8cee593c2)" style="fill: #1f77b4; stroke: #000000; stroke-linejoin: miter"/>
   </g>
   <g id="patch_5">
    <path d="M 312.817058 215.998166 
L 310.627491 214.007205 
L 311.842203 213.976778 
L 294.592644 118.383214 
L 295.807356 118.352786 
L 313.056915 213.94635 
L 314.271628 213.915923 
z
" clip-path="url(#pd8cee593c2)" style="fill: #1f77b4; stroke: #000000; stroke-linejoin: miter"/>
   </g>
   <g id="PolyCollection_1">
    <defs>
     <path id="ma8eb60cc9a" d="M 175.692139 -91.892742 
L 175.692139 -91.48778 
L 176.709228 -91.751396 
L 177.726316 -92.015011 
L 178.743404 -92.278627 
L 179.760492 -92.542243 
L 180.77758 -92.805858 
L 181.794668 -93.069474 
L 182.811757 -93.333089 
L 183.828845 -93.596705 
L 184.845933 -93.86032 
L 185.863021 -94.123936 
L 186.880109 -94.387551 
L 187.897198 -94.651167 
L 188.914286 -94.914783 
L 189.931374 -95.178398 
L 190.948462 -95.442014 
L 191.96555 -95.705629 
L 192.982638 -95.969245 
L 193.999727 -96.23286 
L 195.016815 -96.496476 
L 196.033903 -96.760092 
L 197.050991 -97.023707 
L 198.068079 -97.287323 
L 199.085167 -97.550938 
L 200.102256 -97.814554 
L 201.119344 -98.078169 
L 202.136432 -98.341785 
L 203.15352 -98.6054 
L 204.170608 -98.869016 
L 205.187697 -99.132632 
L 206.204785 -99.396247 
L 207.221873 -99.659863 
L 208.238961 -99.923478 
L 209.256049 -100.187094 
L 210.273137 -100.450709 
L 211.290226 -100.714325 
L 212.307314 -100.977941 
L 213.324402 -101.241556 
L 214.34149 -101.505172 
L 215.358578 -101.768787 
L 216.375666 -102.032403 
L 217.392755 -102.296018 
L 218.409843 -102.559634 
L 219.426931 -102.823249 
L 220.444019 -103.086865 
L 221.461107 -103.350481 
L 222.478195 -103.614096 
L 223.495284 -103.877712 
L 224.512372 -104.141327 
L 225.52946 -104.404943 
L 226.546548 -104.668558 
L 227.563636 -104.932174 
L 228.580725 -105.195789 
L 229.597813 -105.459405 
L 230.614901 -105.723021 
L 231.631989 -105.986636 
L 232.649077 -106.250252 
L 233.666165 -106.513867 
L 234.683254 -106.777483 
L 235.700342 -107.041098 
L 236.71743 -107.304714 
L 237.734518 -107.56833 
L 238.751606 -107.831945 
L 239.768694 -108.095561 
L 240.785783 -108.359176 
L 241.802871 -108.622792 
L 242.819959 -108.886407 
L 243.837047 -109.150023 
L 244.854135 -109.413638 
L 245.871224 -109.677254 
L 246.888312 -109.94087 
L 247.9054 -110.204485 
L 248.922488 -110.468101 
L 249.939576 -110.731716 
L 250.956664 -110.995332 
L 251.973753 -111.258947 
L 252.990841 -111.522563 
L 254.007929 -111.786178 
L 255.025017 -112.049794 
L 256.042105 -112.31341 
L 257.059193 -112.577025 
L 258.076282 -112.840641 
L 259.09337 -113.104256 
L 260.110458 -113.367872 
L 261.127546 -113.631487 
L 262.144634 -113.895103 
L 263.161722 -114.158719 
L 264.178811 -114.422334 
L 265.195899 -114.68595 
L 266.212987 -114.949565 
L 267.230075 -115.213181 
L 268.247163 -115.476796 
L 269.264252 -115.740412 
L 270.28134 -116.004027 
L 271.298428 -116.267643 
L 272.315516 -116.531259 
L 273.332604 -116.794874 
L 274.349692 -117.05849 
L 275.366781 -117.322105 
L 276.383869 -117.585721 
L 277.400957 -117.849336 
L 278.418045 -118.112952 
L 279.435133 -118.376568 
L 280.452221 -118.640183 
L 281.46931 -118.903799 
L 282.486398 -119.167414 
L 283.503486 -119.43103 
L 284.520574 -119.694645 
L 285.537662 -119.958261 
L 286.554751 -120.221876 
L 287.571839 -120.485492 
L 288.588927 -120.749108 
L 289.606015 -121.012723 
L 290.623103 -121.276339 
L 291.640191 -121.539954 
L 292.65728 -121.80357 
L 293.674368 -122.067185 
L 294.691456 -122.330801 
L 295.708544 -122.594416 
L 296.725632 -122.858032 
L 297.74272 -123.121648 
L 298.759809 -123.385263 
L 299.776897 -123.648879 
L 300.793985 -123.912494 
L 301.811073 -124.17611 
L 302.828161 -124.439725 
L 303.845249 -124.703341 
L 304.862338 -124.966957 
L 305.879426 -125.230572 
L 306.896514 -125.494188 
L 307.913602 -125.757803 
L 308.93069 -126.021419 
L 309.947779 -126.285034 
L 310.964867 -126.54865 
L 311.981955 -126.812265 
L 312.999043 -127.075881 
L 314.016131 -127.339497 
L 315.033219 -127.603112 
L 316.050308 -127.866728 
L 317.067396 -128.130343 
L 318.084484 -128.393959 
L 319.101572 -128.657574 
L 320.11866 -128.92119 
L 321.135748 -129.184805 
L 322.152837 -129.448421 
L 323.169925 -129.712037 
L 324.187013 -129.975652 
L 325.204101 -130.239268 
L 326.221189 -130.502883 
L 327.238278 -130.766499 
L 328.255366 -131.030114 
L 329.272454 -131.29373 
L 330.289542 -131.557346 
L 331.30663 -131.820961 
L 332.323718 -132.084577 
L 333.340807 -132.348192 
L 334.357895 -132.611808 
L 335.374983 -132.875423 
L 336.392071 -133.139039 
L 337.409159 -133.402654 
L 338.426247 -133.66627 
L 339.443336 -133.929886 
L 340.460424 -134.193501 
L 341.477512 -134.457117 
L 342.4946 -134.720732 
L 343.511688 -134.984348 
L 344.528776 -135.247963 
L 345.545865 -135.511579 
L 346.562953 -135.775195 
L 347.580041 -136.03881 
L 348.597129 -136.302426 
L 349.614217 -136.566041 
L 350.631306 -136.829657 
L 351.648394 -137.093272 
L 352.665482 -137.356888 
L 353.68257 -137.620503 
L 354.699658 -137.884119 
L 355.716746 -138.147735 
L 356.733835 -138.41135 
L 357.750923 -138.674966 
L 358.768011 -138.938581 
L 359.785099 -139.202197 
L 360.802187 -139.465812 
L 361.819275 -139.729428 
L 362.836364 -139.993043 
L 363.853452 -140.256659 
L 364.87054 -140.520275 
L 365.887628 -140.78389 
L 366.904716 -141.047506 
L 367.921805 -141.311121 
L 368.938893 -141.574737 
L 369.955981 -141.838352 
L 370.973069 -142.101968 
L 371.990157 -142.365584 
L 373.007245 -142.629199 
L 374.024334 -142.892815 
L 375.041422 -143.15643 
L 376.05851 -143.420046 
L 377.075598 -143.683661 
L 378.092686 -143.947277 
L 379.109774 -144.210892 
L 380.126863 -144.474508 
L 381.143951 -144.738124 
L 382.161039 -145.001739 
L 383.178127 -145.265355 
L 384.195215 -145.52897 
L 385.212303 -145.792586 
L 386.229392 -146.056201 
L 387.24648 -146.319817 
L 388.263568 -146.583432 
L 389.280656 -146.847048 
L 390.297744 -147.110664 
L 391.314833 -147.374279 
L 392.331921 -147.637895 
L 393.349009 -147.90151 
L 394.366097 -148.165126 
L 395.383185 -148.428741 
L 396.400273 -148.692357 
L 397.417362 -148.955973 
L 398.43445 -149.219588 
L 399.451538 -149.483204 
L 400.468626 -149.746819 
L 401.485714 -150.010435 
L 402.502802 -150.27405 
L 403.519891 -150.537666 
L 404.536979 -150.801281 
L 405.554067 -151.064897 
L 406.571155 -151.328513 
L 407.588243 -151.592128 
L 408.605332 -151.855744 
L 409.62242 -152.119359 
L 410.639508 -152.382975 
L 411.656596 -152.64659 
L 412.673684 -152.910206 
L 413.690772 -153.173822 
L 414.707861 -153.437437 
L 415.724949 -153.701053 
L 416.742037 -153.964668 
L 417.759125 -154.228284 
L 418.776213 -154.491899 
L 419.793301 -154.755515 
L 420.81039 -155.01913 
L 421.827478 -155.282746 
L 422.844566 -155.546362 
L 423.861654 -155.809977 
L 424.878742 -156.073593 
L 425.89583 -156.337208 
L 426.912919 -156.600824 
L 427.930007 -156.864439 
L 428.947095 -157.128055 
L 429.964183 -157.39167 
L 430.981271 -157.655286 
L 431.99836 -157.918902 
L 433.015448 -158.182517 
L 434.032536 -158.446133 
L 435.049624 -158.709748 
L 436.066712 -158.973364 
L 437.0838 -159.236979 
L 438.100889 -159.500595 
L 439.117977 -159.764211 
L 440.135065 -160.027826 
L 441.152153 -160.291442 
L 442.169241 -160.555057 
L 443.186329 -160.818673 
L 444.203418 -161.082288 
L 445.220506 -161.345904 
L 446.237594 -161.609519 
L 447.254682 -161.873135 
L 448.27177 -162.136751 
L 449.288859 -162.400366 
L 450.305947 -162.663982 
L 451.323035 -162.927597 
L 452.340123 -163.191213 
L 453.357211 -163.454828 
L 453.357211 -163.524976 
L 453.357211 -163.524976 
L 452.340123 -163.880957 
L 451.323035 -164.236938 
L 450.305947 -164.592919 
L 449.288859 -164.9489 
L 448.27177 -165.30488 
L 447.254682 -165.660861 
L 446.237594 -166.016842 
L 445.220506 -166.372823 
L 444.203418 -166.728804 
L 443.186329 -167.084785 
L 442.169241 -167.440766 
L 441.152153 -167.796746 
L 440.135065 -168.152727 
L 439.117977 -168.508708 
L 438.100889 -168.864689 
L 437.0838 -169.22067 
L 436.066712 -169.576651 
L 435.049624 -169.932632 
L 434.032536 -170.288612 
L 433.015448 -170.644593 
L 431.99836 -171.000574 
L 430.981271 -171.356555 
L 429.964183 -171.712536 
L 428.947095 -172.068517 
L 427.930007 -172.424498 
L 426.912919 -172.780478 
L 425.89583 -173.136459 
L 424.878742 -173.49244 
L 423.861654 -173.848421 
L 422.844566 -174.204402 
L 421.827478 -174.560383 
L 420.81039 -174.916364 
L 419.793301 -175.272344 
L 418.776213 -175.628325 
L 417.759125 -175.984306 
L 416.742037 -176.340287 
L 415.724949 -176.696268 
L 414.707861 -177.052249 
L 413.690772 -177.40823 
L 412.673684 -177.764211 
L 411.656596 -178.120191 
L 410.639508 -178.476172 
L 409.62242 -178.832153 
L 408.605332 -179.188134 
L 407.588243 -179.544115 
L 406.571155 -179.900096 
L 405.554067 -180.256077 
L 404.536979 -180.612057 
L 403.519891 -180.968038 
L 402.502802 -181.324019 
L 401.485714 -181.68 
L 400.468626 -182.035981 
L 399.451538 -182.391962 
L 398.43445 -182.747943 
L 397.417362 -183.103923 
L 396.400273 -183.459904 
L 395.383185 -183.815885 
L 394.366097 -184.171866 
L 393.349009 -184.527847 
L 392.331921 -184.883828 
L 391.314833 -185.239809 
L 390.297744 -185.595789 
L 389.280656 -185.95177 
L 388.263568 -186.307751 
L 387.24648 -186.663732 
L 386.229392 -187.019713 
L 385.212303 -187.375694 
L 384.195215 -187.731675 
L 383.178127 -188.087656 
L 382.161039 -188.443636 
L 381.143951 -188.799617 
L 380.126863 -189.155598 
L 379.109774 -189.511579 
L 378.092686 -189.86756 
L 377.075598 -190.223541 
L 376.05851 -190.579522 
L 375.041422 -190.935502 
L 374.024334 -191.291483 
L 373.007245 -191.647464 
L 371.990157 -192.003445 
L 370.973069 -192.359426 
L 369.955981 -192.715407 
L 368.938893 -193.071388 
L 367.921805 -193.427368 
L 366.904716 -193.783349 
L 365.887628 -194.13933 
L 364.87054 -194.495311 
L 363.853452 -194.851292 
L 362.836364 -195.207273 
L 361.819275 -195.563254 
L 360.802187 -195.919234 
L 359.785099 -196.275215 
L 358.768011 -196.631196 
L 357.750923 -196.987177 
L 356.733835 -197.343158 
L 355.716746 -197.699139 
L 354.699658 -198.05512 
L 353.68257 -198.4111 
L 352.665482 -198.767081 
L 351.648394 -199.123062 
L 350.631306 -199.479043 
L 349.614217 -199.835024 
L 348.597129 -200.191005 
L 347.580041 -200.546986 
L 346.562953 -200.902967 
L 345.545865 -201.258947 
L 344.528776 -201.614928 
L 343.511688 -201.970909 
L 342.4946 -202.32689 
L 341.477512 -202.682871 
L 340.460424 -203.038852 
L 339.443336 -203.394833 
L 338.426247 -203.750813 
L 337.409159 -204.106794 
L 336.392071 -204.462775 
L 335.374983 -204.818756 
L 334.357895 -205.174737 
L 333.340807 -205.530718 
L 332.323718 -205.886699 
L 331.30663 -206.242679 
L 330.289542 -206.59866 
L 329.272454 -206.954641 
L 328.255366 -207.310622 
L 327.238278 -207.666603 
L 326.221189 -208.022584 
L 325.204101 -208.378565 
L 324.187013 -208.734545 
L 323.169925 -209.090526 
L 322.152837 -209.446507 
L 321.135748 -209.802488 
L 320.11866 -210.158469 
L 319.101572 -210.51445 
L 318.084484 -210.870431 
L 317.067396 -211.226411 
L 316.050308 -211.582392 
L 315.033219 -211.938373 
L 314.016131 -211.241219 
L 312.999043 -210.363657 
L 311.981955 -209.486094 
L 310.964867 -208.608532 
L 309.947779 -207.73097 
L 308.93069 -206.853407 
L 307.913602 -205.975845 
L 306.896514 -205.098283 
L 305.879426 -204.22072 
L 304.862338 -203.343158 
L 303.845249 -202.465596 
L 302.828161 -201.588033 
L 301.811073 -200.710471 
L 300.793985 -199.832909 
L 299.776897 -198.955346 
L 298.759809 -198.077784 
L 297.74272 -197.200222 
L 296.725632 -196.322659 
L 295.708544 -195.445097 
L 294.691456 -194.567535 
L 293.674368 -193.689972 
L 292.65728 -192.81241 
L 291.640191 -191.934848 
L 290.623103 -191.057285 
L 289.606015 -190.179723 
L 288.588927 -189.302161 
L 287.571839 -188.424598 
L 286.554751 -187.547036 
L 285.537662 -186.669474 
L 284.520574 -185.791911 
L 283.503486 -184.914349 
L 282.486398 -184.036787 
L 281.46931 -183.159224 
L 280.452221 -182.281662 
L 279.435133 -181.4041 
L 278.418045 -180.526537 
L 277.400957 -179.648975 
L 276.383869 -178.771413 
L 275.366781 -177.89385 
L 274.349692 -177.016288 
L 273.332604 -176.138726 
L 272.315516 -175.261163 
L 271.298428 -174.383601 
L 270.28134 -173.506039 
L 269.264252 -172.628476 
L 268.247163 -171.750914 
L 267.230075 -170.873352 
L 266.212987 -169.995789 
L 265.195899 -169.118227 
L 264.178811 -168.240665 
L 263.161722 -167.363102 
L 262.144634 -166.48554 
L 261.127546 -165.607978 
L 260.110458 -164.730416 
L 259.09337 -163.852853 
L 258.076282 -162.975291 
L 257.059193 -162.097729 
L 256.042105 -161.220166 
L 255.025017 -160.342604 
L 254.007929 -159.465042 
L 252.990841 -158.587479 
L 251.973753 -157.709917 
L 250.956664 -156.832355 
L 249.939576 -155.954792 
L 248.922488 -155.07723 
L 247.9054 -154.199668 
L 246.888312 -153.322105 
L 245.871224 -152.444543 
L 244.854135 -151.566981 
L 243.837047 -150.689418 
L 242.819959 -149.811856 
L 241.802871 -148.934294 
L 240.785783 -148.056731 
L 239.768694 -147.179169 
L 238.751606 -146.301607 
L 237.734518 -145.424044 
L 236.71743 -144.546482 
L 235.700342 -143.66892 
L 234.683254 -142.791357 
L 233.666165 -141.913795 
L 232.649077 -141.036233 
L 231.631989 -140.15867 
L 230.614901 -139.281108 
L 229.597813 -138.403546 
L 228.580725 -137.525983 
L 227.563636 -136.648421 
L 226.546548 -135.770859 
L 225.52946 -134.893296 
L 224.512372 -134.015734 
L 223.495284 -133.138172 
L 222.478195 -132.260609 
L 221.461107 -131.383047 
L 220.444019 -130.505485 
L 219.426931 -129.627922 
L 218.409843 -128.75036 
L 217.392755 -127.872798 
L 216.375666 -126.995235 
L 215.358578 -126.117673 
L 214.34149 -125.240111 
L 213.324402 -124.362548 
L 212.307314 -123.484986 
L 211.290226 -122.607424 
L 210.273137 -121.729861 
L 209.256049 -120.852299 
L 208.238961 -119.974737 
L 207.221873 -119.097175 
L 206.204785 -118.219612 
L 205.187697 -117.34205 
L 204.170608 -116.464488 
L 203.15352 -115.586925 
L 202.136432 -114.709363 
L 201.119344 -113.831801 
L 200.102256 -112.954238 
L 199.085167 -112.076676 
L 198.068079 -111.199114 
L 197.050991 -110.321551 
L 196.033903 -109.443989 
L 195.016815 -108.566427 
L 193.999727 -107.688864 
L 192.982638 -106.811302 
L 191.96555 -105.93374 
L 190.948462 -105.056177 
L 189.931374 -104.178615 
L 188.914286 -103.301053 
L 187.897198 -102.42349 
L 186.880109 -101.545928 
L 185.863021 -100.668366 
L 184.845933 -99.790803 
L 183.828845 -98.913241 
L 182.811757 -98.035679 
L 181.794668 -97.158116 
L 180.77758 -96.280554 
L 179.760492 -95.402992 
L 178.743404 -94.525429 
L 177.726316 -93.647867 
L 176.709228 -92.770305 
L 175.692139 -91.892742 
z
" style="stroke: #dcdcdc; stroke-opacity: 0.6"/>
    </defs>
    <g clip-path="url(#pd8cee593c2)">
     <use xlink:href="#ma8eb60cc9a" x="0" y="432" style="fill: #dcdcdc; fill-opacity: 0.6; stroke: #dcdcdc; stroke-opacity: 0.6"/>
    </g>
   </g>
   <g id="matplotlib.axis_1">
    <g id="xtick_1">
     <g id="line2d_1">
      <path d="M 92.290909 384.48 
L 92.290909 51.84 
" clip-path="url(#pd8cee593c2)" style="fill: none; stroke: #b0b0b0; stroke-width: 0.8; stroke-linecap: square"/>
     </g>
     <g id="line2d_2">
      <defs>
       <path id="m97a275e5bf" d="M 0 0 
L 0 3.5 
" style="stroke: #000000; stroke-width: 0.8"/>
      </defs>
      <g>
       <use xlink:href="#m97a275e5bf" x="92.290909" y="384.48" style="stroke: #000000; stroke-width: 0.8"/>
      </g>
     </g>
     <g id="text_1">
      <!-- −40 -->
      <g transform="translate(81.738565 399.078438) scale(0.1 -0.1)">
       <defs>
        <path id="DejaVuSans-2212" d="M 678 2272 
L 4684 2272 
L 4684 1741 
L 678 1741 
L 678 2272 
z
" transform="scale(0.015625)"/>
        <path id="DejaVuSans-34" d="M 2419 4116 
L 825 1625 
L 2419 1625 
L 2419 4116 
z
M 2253 4666 
L 3047 4666 
L 3047 1625 
L 3713 1625 
L 3713 1100 
L 3047 1100 
L 3047 0 
L 2419 0 
L 2419 1100 
L 313 1100 
L 313 1709 
L 2253 4666 
z
" transform="scale(0.015625)"/>
        <path id="DejaVuSans-30" d="M 2034 4250 
Q 1547 4250 1301 3770 
Q 1056 3291 1056 2328 
Q 1056 1369 1301 889 
Q 1547 409 2034 409 
Q 2525 409 2770 889 
Q 3016 1369 3016 2328 
Q 3016 3291 2770 3770 
Q 2525 4250 2034 4250 
z
M 2034 4750 
Q 2819 4750 3233 4129 
Q 3647 3509 3647 2328 
Q 3647 1150 3233 529 
Q 2819 -91 2034 -91 
Q 1250 -91 836 529 
Q 422 1150 422 2328 
Q 422 3509 836 4129 
Q 1250 4750 2034 4750 
z
" transform="scale(0.015625)"/>
       </defs>
       <use xlink:href="#DejaVuSans-2212"/>
       <use xlink:href="#DejaVuSans-34" x="83.789062"/>
       <use xlink:href="#DejaVuSans-30" x="147.412109"/>
      </g>
     </g>
    </g>
    <g id="xtick_2">
     <g id="line2d_3">
      <path d="M 173.454545 384.48 
L 173.454545 51.84 
" clip-path="url(#pd8cee593c2)" style="fill: none; stroke: #b0b0b0; stroke-width: 0.8; stroke-linecap: square"/>
     </g>
     <g id="line2d_4">
      <g>
       <use xlink:href="#m97a275e5bf" x="173.454545" y="384.48" style="stroke: #000000; stroke-width: 0.8"/>
      </g>
     </g>
     <g id="text_2">
      <!-- −30 -->
      <g transform="translate(162.902202 399.078438) scale(0.1 -0.1)">
       <defs>
        <path id="DejaVuSans-33" d="M 2597 2516 
Q 3050 2419 3304 2112 
Q 3559 1806 3559 1356 
Q 3559 666 3084 287 
Q 2609 -91 1734 -91 
Q 1441 -91 1130 -33 
Q 819 25 488 141 
L 488 750 
Q 750 597 1062 519 
Q 1375 441 1716 441 
Q 2309 441 2620 675 
Q 2931 909 2931 1356 
Q 2931 1769 2642 2001 
Q 2353 2234 1838 2234 
L 1294 2234 
L 1294 2753 
L 1863 2753 
Q 2328 2753 2575 2939 
Q 2822 3125 2822 3475 
Q 2822 3834 2567 4026 
Q 2313 4219 1838 4219 
Q 1578 4219 1281 4162 
Q 984 4106 628 3988 
L 628 4550 
Q 988 4650 1302 4700 
Q 1616 4750 1894 4750 
Q 2613 4750 3031 4423 
Q 3450 4097 3450 3541 
Q 3450 3153 3228 2886 
Q 3006 2619 2597 2516 
z
" transform="scale(0.015625)"/>
       </defs>
       <use xlink:href="#DejaVuSans-2212"/>
       <use xlink:href="#DejaVuSans-33" x="83.789062"/>
       <use xlink:href="#DejaVuSans-30" x="147.412109"/>
      </g>
     </g>
    </g>
    <g id="xtick_3">
     <g id="line2d_5">
      <path d="M 254.618182 384.48 
L 254.618182 51.84 
" clip-path="url(#pd8cee593c2)" style="fill: none; stroke: #b0b0b0; stroke-width: 0.8; stroke-linecap: square"/>
     </g>
     <g id="line2d_6">
      <g>
       <use xlink:href="#m97a275e5bf" x="254.618182" y="384.48" style="stroke: #000000; stroke-width: 0.8"/>
      </g>
     </g>
     <g id="text_3">
      <!-- −20 -->
      <g transform="translate(244.065838 399.078438) scale(0.1 -0.1)">
       <defs>
        <path id="DejaVuSans-32" d="M 1228 531 
L 3431 531 
L 3431 0 
L 469 0 
L 469 531 
Q 828 903 1448 1529 
Q 2069 2156 2228 2338 
Q 2531 2678 2651 2914 
Q 2772 3150 2772 3378 
Q 2772 3750 2511 3984 
Q 2250 4219 1831 4219 
Q 1534 4219 1204 4116 
Q 875 4013 500 3803 
L 500 4441 
Q 881 4594 1212 4672 
Q 1544 4750 1819 4750 
Q 2544 4750 2975 4387 
Q 3406 4025 3406 3419 
Q 3406 3131 3298 2873 
Q 3191 2616 2906 2266 
Q 2828 2175 2409 1742 
Q 1991 1309 1228 531 
z
" transform="scale(0.015625)"/>
       </defs>
       <use xlink:href="#DejaVuSans-2212"/>
       <use xlink:href="#DejaVuSans-32" x="83.789062"/>
       <use xlink:href="#DejaVuSans-30" x="147.412109"/>
      </g>
     </g>
    </g>
    <g id="xtick_4">
     <g id="line2d_7">
      <path d="M 335.781818 384.48 
L 335.781818 51.84 
" clip-path="url(#pd8cee593c2)" style="fill: none; stroke: #b0b0b0; stroke-width: 0.8; stroke-linecap: square"/>
     </g>
     <g id="line2d_8">
      <g>
       <use xlink:href="#m97a275e5bf" x="335.781818" y="384.48" style="stroke: #000000; stroke-width: 0.8"/>
      </g>
     </g>
     <g id="text_4">
      <!-- −10 -->
      <g transform="translate(325.229474 399.078438) scale(0.1 -0.1)">
       <defs>
        <path id="DejaVuSans-31" d="M 794 531 
L 1825 531 
L 1825 4091 
L 703 3866 
L 703 4441 
L 1819 4666 
L 2450 4666 
L 2450 531 
L 3481 531 
L 3481 0 
L 794 0 
L 794 531 
z
" transform="scale(0.015625)"/>
       </defs>
       <use xlink:href="#DejaVuSans-2212"/>
       <use xlink:href="#DejaVuSans-31" x="83.789062"/>
       <use xlink:href="#DejaVuSans-30" x="147.412109"/>
      </g>
     </g>
    </g>
    <g id="xtick_5">
     <g id="line2d_9">
      <path d="M 416.945455 384.48 
L 416.945455 51.84 
" clip-path="url(#pd8cee593c2)" style="fill: none; stroke: #b0b0b0; stroke-width: 0.8; stroke-linecap: square"/>
     </g>
     <g id="line2d_10">
      <g>
       <use xlink:href="#m97a275e5bf" x="416.945455" y="384.48" style="stroke: #000000; stroke-width: 0.8"/>
      </g>
     </g>
     <g id="text_5">
      <!-- 0 -->
      <g transform="translate(413.764205 399.078438) scale(0.1 -0.1)">
       <use xlink:href="#DejaVuSans-30"/>
      </g>
     </g>
    </g>
    <g id="xtick_6">
     <g id="line2d_11">
      <path d="M 498.109091 384.48 
L 498.109091 51.84 
" clip-path="url(#pd8cee593c2)" style="fill: none; stroke: #b0b0b0; stroke-width: 0.8; stroke-linecap: square"/>
     </g>
     <g id="line2d_12">
      <g>
       <use xlink:href="#m97a275e5bf" x="498.109091" y="384.48" style="stroke: #000000; stroke-width: 0.8"/>
      </g>
     </g>
     <g id="text_6">
      <!-- 10 -->
      <g transform="translate(491.746591 399.078438) scale(0.1 -0.1)">
       <use xlink:href="#DejaVuSans-31"/>
       <use xlink:href="#DejaVuSans-30" x="63.623047"/>
      </g>
     </g>
    </g>
    <g id="text_7">
     <!-- x1 -->
     <g transform="translate(289.059375 412.756563) scale(0.1 -0.1)">
      <defs>
       <path id="DejaVuSans-78" d="M 3513 3500 
L 2247 1797 
L 3578 0 
L 2900 0 
L 1881 1375 
L 863 0 
L 184 0 
L 1544 1831 
L 300 3500 
L 978 3500 
L 1906 2253 
L 2834 3500 
L 3513 3500 
z
" transform="scale(0.015625)"/>
      </defs>
      <use xlink:href="#DejaVuSans-78"/>
      <use xlink:href="#DejaVuSans-31" x="59.179688"/>
     </g>
    </g>
   </g>
   <g id="matplotlib.axis_2">
    <g id="ytick_1">
     <g id="line2d_13">
      <path d="M 72 354.24 
L 518.4 354.24 
" clip-path="url(#pd8cee593c2)" style="fill: none; stroke: #b0b0b0; stroke-width: 0.8; stroke-linecap: square"/>
     </g>
     <g id="line2d_14">
      <defs>
       <path id="m165e9f2f21" d="M 0 0 
L -3.5 0 
" style="stroke: #000000; stroke-width: 0.8"/>
      </defs>
      <g>
       <use xlink:href="#m165e9f2f21" x="72" y="354.24" style="stroke: #000000; stroke-width: 0.8"/>
      </g>
     </g>
     <g id="text_8">
      <!-- −20 -->
      <g transform="translate(43.895313 358.039219) scale(0.1 -0.1)">
       <use xlink:href="#DejaVuSans-2212"/>
       <use xlink:href="#DejaVuSans-32" x="83.789062"/>
       <use xlink:href="#DejaVuSans-30" x="147.412109"/>
      </g>
     </g>
    </g>
    <g id="ytick_2">
     <g id="line2d_15">
      <path d="M 72 293.76 
L 518.4 293.76 
" clip-path="url(#pd8cee593c2)" style="fill: none; stroke: #b0b0b0; stroke-width: 0.8; stroke-linecap: square"/>
     </g>
     <g id="line2d_16">
      <g>
       <use xlink:href="#m165e9f2f21" x="72" y="293.76" style="stroke: #000000; stroke-width: 0.8"/>
      </g>
     </g>
     <g id="text_9">
      <!-- 0 -->
      <g transform="translate(58.6375 297.559219) scale(0.1 -0.1)">
       <use xlink:href="#DejaVuSans-30"/>
      </g>
     </g>
    </g>
    <g id="ytick_3">
     <g id="line2d_17">
      <path d="M 72 233.28 
L 518.4 233.28 
" clip-path="url(#pd8cee593c2)" style="fill: none; stroke: #b0b0b0; stroke-width: 0.8; stroke-linecap: square"/>
     </g>
     <g id="line2d_18">
      <g>
       <use xlink:href="#m165e9f2f21" x="72" y="233.28" style="stroke: #000000; stroke-width: 0.8"/>
      </g>
     </g>
     <g id="text_10">
      <!-- 20 -->
      <g transform="translate(52.275 237.079219) scale(0.1 -0.1)">
       <use xlink:href="#DejaVuSans-32"/>
       <use xlink:href="#DejaVuSans-30" x="63.623047"/>
      </g>
     </g>
    </g>
    <g id="ytick_4">
     <g id="line2d_19">
      <path d="M 72 172.8 
L 518.4 172.8 
" clip-path="url(#pd8cee593c2)" style="fill: none; stroke: #b0b0b0; stroke-width: 0.8; stroke-linecap: square"/>
     </g>
     <g id="line2d_20">
      <g>
       <use xlink:href="#m165e9f2f21" x="72" y="172.8" style="stroke: #000000; stroke-width: 0.8"/>
      </g>
     </g>
     <g id="text_11">
      <!-- 40 -->
      <g transform="translate(52.275 176.599219) scale(0.1 -0.1)">
       <use xlink:href="#DejaVuSans-34"/>
       <use xlink:href="#DejaVuSans-30" x="63.623047"/>
      </g>
     </g>
    </g>
    <g id="ytick_5">
     <g id="line2d_21">
      <path d="M 72 112.32 
L 518.4 112.32 
" clip-path="url(#pd8cee593c2)" style="fill: none; stroke: #b0b0b0; stroke-width: 0.8; stroke-linecap: square"/>
     </g>
     <g id="line2d_22">
      <g>
       <use xlink:href="#m165e9f2f21" x="72" y="112.32" style="stroke: #000000; stroke-width: 0.8"/>
      </g>
     </g>
     <g id="text_12">
      <!-- 60 -->
      <g transform="translate(52.275 116.119219) scale(0.1 -0.1)">
       <defs>
        <path id="DejaVuSans-36" d="M 2113 2584 
Q 1688 2584 1439 2293 
Q 1191 2003 1191 1497 
Q 1191 994 1439 701 
Q 1688 409 2113 409 
Q 2538 409 2786 701 
Q 3034 994 3034 1497 
Q 3034 2003 2786 2293 
Q 2538 2584 2113 2584 
z
M 3366 4563 
L 3366 3988 
Q 3128 4100 2886 4159 
Q 2644 4219 2406 4219 
Q 1781 4219 1451 3797 
Q 1122 3375 1075 2522 
Q 1259 2794 1537 2939 
Q 1816 3084 2150 3084 
Q 2853 3084 3261 2657 
Q 3669 2231 3669 1497 
Q 3669 778 3244 343 
Q 2819 -91 2113 -91 
Q 1303 -91 875 529 
Q 447 1150 447 2328 
Q 447 3434 972 4092 
Q 1497 4750 2381 4750 
Q 2619 4750 2861 4703 
Q 3103 4656 3366 4563 
z
" transform="scale(0.015625)"/>
       </defs>
       <use xlink:href="#DejaVuSans-36"/>
       <use xlink:href="#DejaVuSans-30" x="63.623047"/>
      </g>
     </g>
    </g>
    <g id="ytick_6">
     <g id="line2d_23">
      <path d="M 72 51.84 
L 518.4 51.84 
" clip-path="url(#pd8cee593c2)" style="fill: none; stroke: #b0b0b0; stroke-width: 0.8; stroke-linecap: square"/>
     </g>
     <g id="line2d_24">
      <g>
       <use xlink:href="#m165e9f2f21" x="72" y="51.84" style="stroke: #000000; stroke-width: 0.8"/>
      </g>
     </g>
     <g id="text_13">
      <!-- 80 -->
      <g transform="translate(52.275 55.639219) scale(0.1 -0.1)">
       <defs>
        <path id="DejaVuSans-38" d="M 2034 2216 
Q 1584 2216 1326 1975 
Q 1069 1734 1069 1313 
Q 1069 891 1326 650 
Q 1584 409 2034 409 
Q 2484 409 2743 651 
Q 3003 894 3003 1313 
Q 3003 1734 2745 1975 
Q 2488 2216 2034 2216 
z
M 1403 2484 
Q 997 2584 770 2862 
Q 544 3141 544 3541 
Q 544 4100 942 4425 
Q 1341 4750 2034 4750 
Q 2731 4750 3128 4425 
Q 3525 4100 3525 3541 
Q 3525 3141 3298 2862 
Q 3072 2584 2669 2484 
Q 3125 2378 3379 2068 
Q 3634 1759 3634 1313 
Q 3634 634 3220 271 
Q 2806 -91 2034 -91 
Q 1263 -91 848 271 
Q 434 634 434 1313 
Q 434 1759 690 2068 
Q 947 2378 1403 2484 
z
M 1172 3481 
Q 1172 3119 1398 2916 
Q 1625 2713 2034 2713 
Q 2441 2713 2670 2916 
Q 2900 3119 2900 3481 
Q 2900 3844 2670 4047 
Q 2441 4250 2034 4250 
Q 1625 4250 1398 4047 
Q 1172 3844 1172 3481 
z
" transform="scale(0.015625)"/>
       </defs>
       <use xlink:href="#DejaVuSans-38"/>
       <use xlink:href="#DejaVuSans-30" x="63.623047"/>
      </g>
     </g>
    </g>
    <g id="text_14">
     <!-- x2 -->
     <g transform="translate(37.815625 224.300625) rotate(-90) scale(0.1 -0.1)">
      <use xlink:href="#DejaVuSans-78"/>
      <use xlink:href="#DejaVuSans-32" x="59.179688"/>
     </g>
    </g>
   </g>
   <g id="line2d_25">
    <path d="M 92.290909 142.101818 
L 498.109091 284.138182 
L 498.109091 284.138182 
" clip-path="url(#pd8cee593c2)" style="fill: none; stroke-dasharray: 1.5,2.475; stroke-dashoffset: 0; stroke: #48d1cc; stroke-width: 1.5"/>
   </g>
   <g id="line2d_26">
    <path d="M 92.290909 362.128696 
L 498.109091 256.946087 
L 498.109091 256.946087 
" clip-path="url(#pd8cee593c2)" style="fill: none; stroke-dasharray: 5.55,2.4; stroke-dashoffset: 0; stroke: #ff4500; stroke-width: 1.5"/>
   </g>
   <g id="line2d_27">
    <path d="M 92.290909 412.067368 
L 498.109091 61.92 
L 498.109091 61.92 
" clip-path="url(#pd8cee593c2)" style="fill: none; stroke-dasharray: 9.6,2.4,1.5,2.4; stroke-dashoffset: 0; stroke: #f0e68c; stroke-width: 1.5"/>
   </g>
   <g id="line2d_28">
    <defs>
     <path id="mcb06bdbe34" d="M 0 3 
C 0.795609 3 1.55874 2.683901 2.12132 2.12132 
C 2.683901 1.55874 3 0.795609 3 0 
C 3 -0.795609 2.683901 -1.55874 2.12132 -2.12132 
C 1.55874 -2.683901 0.795609 -3 0 -3 
C -0.795609 -3 -1.55874 -2.683901 -2.12132 -2.12132 
C -2.683901 -1.55874 -3 -0.795609 -3 0 
C -3 0.795609 -2.683901 1.55874 -2.12132 2.12132 
C -1.55874 2.683901 -0.795609 3 0 3 
z
" style="stroke: #32cd32"/>
    </defs>
    <g clip-path="url(#pd8cee593c2)">
     <use xlink:href="#mcb06bdbe34" x="453.472361" y="268.515326" style="fill: #32cd32; stroke: #32cd32"/>
    </g>
   </g>
   <g id="line2d_29">
    <defs>
     <path id="mde4a3158f4" d="M 0 3 
C 0.795609 3 1.55874 2.683901 2.12132 2.12132 
C 2.683901 1.55874 3 0.795609 3 0 
C 3 -0.795609 2.683901 -1.55874 2.12132 -2.12132 
C 1.55874 -2.683901 0.795609 -3 0 -3 
C -0.795609 -3 -1.55874 -2.683901 -2.12132 -2.12132 
C -2.683901 -1.55874 -3 -0.795609 -3 0 
C -3 0.795609 -2.683901 1.55874 -2.12132 2.12132 
C -1.55874 2.683901 -0.795609 3 0 3 
z
" style="stroke: #4b0082"/>
    </defs>
    <g clip-path="url(#pd8cee593c2)">
     <use xlink:href="#mde4a3158f4" x="175.021263" y="340.686102" style="fill: #4b0082; stroke: #4b0082"/>
    </g>
   </g>
   <g id="line2d_30">
    <defs>
     <path id="m9584b0bef7" d="M 0 3 
C 0.795609 3 1.55874 2.683901 2.12132 2.12132 
C 2.683901 1.55874 3 0.795609 3 0 
C 3 -0.795609 2.683901 -1.55874 2.12132 -2.12132 
C 1.55874 -2.683901 0.795609 -3 0 -3 
C -0.795609 -3 -1.55874 -2.683901 -2.12132 -2.12132 
C -2.683901 -1.55874 -3 -0.795609 -3 0 
C -3 0.795609 -2.683901 1.55874 -2.12132 2.12132 
C -1.55874 2.683901 -0.795609 3 0 3 
z
" style="stroke: #0000cd"/>
    </defs>
    <g clip-path="url(#pd8cee593c2)">
     <use xlink:href="#m9584b0bef7" x="314.884468" y="220.009564" style="fill: #0000cd; stroke: #0000cd"/>
    </g>
   </g>
   <g id="patch_6">
    <path d="M 72 384.48 
L 72 51.84 
" style="fill: none; stroke: #000000; stroke-width: 0.8; stroke-linejoin: miter; stroke-linecap: square"/>
   </g>
   <g id="patch_7">
    <path d="M 518.4 384.48 
L 518.4 51.84 
" style="fill: none; stroke: #000000; stroke-width: 0.8; stroke-linejoin: miter; stroke-linecap: square"/>
   </g>
   <g id="patch_8">
    <path d="M 72 384.48 
L 518.4 384.48 
" style="fill: none; stroke: #000000; stroke-width: 0.8; stroke-linejoin: miter; stroke-linecap: square"/>
   </g>
   <g id="patch_9">
    <path d="M 72 51.84 
L 518.4 51.84 
" style="fill: none; stroke: #000000; stroke-width: 0.8; stroke-linejoin: miter; stroke-linecap: square"/>
   </g>
   <g id="text_15">
    <!-- $6.2x_1 + 6.6x_2 = 83$ -->
    <g transform="translate(133.515386 154.193159) rotate(-342) scale(0.1 -0.1)">
     <defs>
      <path id="DejaVuSans-2e" d="M 684 794 
L 1344 794 
L 1344 0 
L 684 0 
L 684 794 
z
" transform="scale(0.015625)"/>
      <path id="DejaVuSans-Oblique-78" d="M 3841 3500 
L 2234 1784 
L 3219 0 
L 2559 0 
L 1819 1388 
L 531 0 
L -166 0 
L 1556 1844 
L 641 3500 
L 1300 3500 
L 1972 2234 
L 3144 3500 
L 3841 3500 
z
" transform="scale(0.015625)"/>
      <path id="DejaVuSans-2b" d="M 2944 4013 
L 2944 2272 
L 4684 2272 
L 4684 1741 
L 2944 1741 
L 2944 0 
L 2419 0 
L 2419 1741 
L 678 1741 
L 678 2272 
L 2419 2272 
L 2419 4013 
L 2944 4013 
z
" transform="scale(0.015625)"/>
      <path id="DejaVuSans-3d" d="M 678 2906 
L 4684 2906 
L 4684 2381 
L 678 2381 
L 678 2906 
z
M 678 1631 
L 4684 1631 
L 4684 1100 
L 678 1100 
L 678 1631 
z
" transform="scale(0.015625)"/>
     </defs>
     <use xlink:href="#DejaVuSans-36" transform="translate(0 0.78125)"/>
     <use xlink:href="#DejaVuSans-2e" transform="translate(63.623047 0.78125)"/>
     <use xlink:href="#DejaVuSans-32" transform="translate(89.910156 0.78125)"/>
     <use xlink:href="#DejaVuSans-Oblique-78" transform="translate(153.533203 0.78125)"/>
     <use xlink:href="#DejaVuSans-31" transform="translate(212.712891 -15.625) scale(0.7)"/>
     <use xlink:href="#DejaVuSans-2b" transform="translate(279.46582 0.78125)"/>
     <use xlink:href="#DejaVuSans-36" transform="translate(382.737305 0.78125)"/>
     <use xlink:href="#DejaVuSans-2e" transform="translate(446.360352 0.78125)"/>
     <use xlink:href="#DejaVuSans-36" transform="translate(478.147461 0.78125)"/>
     <use xlink:href="#DejaVuSans-Oblique-78" transform="translate(541.770508 0.78125)"/>
     <use xlink:href="#DejaVuSans-32" transform="translate(600.950195 -15.625) scale(0.7)"/>
     <use xlink:href="#DejaVuSans-3d" transform="translate(667.703125 0.78125)"/>
     <use xlink:href="#DejaVuSans-38" transform="translate(770.974609 0.78125)"/>
     <use xlink:href="#DejaVuSans-33" transform="translate(834.597656 0.78125)"/>
    </g>
   </g>
   <g id="text_16">
    <!-- $-9.6x_1 + 13.8x_2 = 72$ -->
    <g transform="translate(373.429395 158.2387) rotate(-43) scale(0.1 -0.1)">
     <defs>
      <path id="DejaVuSans-39" d="M 703 97 
L 703 672 
Q 941 559 1184 500 
Q 1428 441 1663 441 
Q 2288 441 2617 861 
Q 2947 1281 2994 2138 
Q 2813 1869 2534 1725 
Q 2256 1581 1919 1581 
Q 1219 1581 811 2004 
Q 403 2428 403 3163 
Q 403 3881 828 4315 
Q 1253 4750 1959 4750 
Q 2769 4750 3195 4129 
Q 3622 3509 3622 2328 
Q 3622 1225 3098 567 
Q 2575 -91 1691 -91 
Q 1453 -91 1209 -44 
Q 966 3 703 97 
z
M 1959 2075 
Q 2384 2075 2632 2365 
Q 2881 2656 2881 3163 
Q 2881 3666 2632 3958 
Q 2384 4250 1959 4250 
Q 1534 4250 1286 3958 
Q 1038 3666 1038 3163 
Q 1038 2656 1286 2365 
Q 1534 2075 1959 2075 
z
" transform="scale(0.015625)"/>
      <path id="DejaVuSans-37" d="M 525 4666 
L 3525 4666 
L 3525 4397 
L 1831 0 
L 1172 0 
L 2766 4134 
L 525 4134 
L 525 4666 
z
" transform="scale(0.015625)"/>
     </defs>
     <use xlink:href="#DejaVuSans-2212" transform="translate(0 0.78125)"/>
     <use xlink:href="#DejaVuSans-39" transform="translate(83.789062 0.78125)"/>
     <use xlink:href="#DejaVuSans-2e" transform="translate(147.412109 0.78125)"/>
     <use xlink:href="#DejaVuSans-36" transform="translate(179.199219 0.78125)"/>
     <use xlink:href="#DejaVuSans-Oblique-78" transform="translate(242.822266 0.78125)"/>
     <use xlink:href="#DejaVuSans-31" transform="translate(302.001953 -15.625) scale(0.7)"/>
     <use xlink:href="#DejaVuSans-2b" transform="translate(368.754883 0.78125)"/>
     <use xlink:href="#DejaVuSans-31" transform="translate(472.026367 0.78125)"/>
     <use xlink:href="#DejaVuSans-33" transform="translate(535.649414 0.78125)"/>
     <use xlink:href="#DejaVuSans-2e" transform="translate(599.272461 0.78125)"/>
     <use xlink:href="#DejaVuSans-38" transform="translate(628.43457 0.78125)"/>
     <use xlink:href="#DejaVuSans-Oblique-78" transform="translate(692.057617 0.78125)"/>
     <use xlink:href="#DejaVuSans-32" transform="translate(751.237305 -15.625) scale(0.7)"/>
     <use xlink:href="#DejaVuSans-3d" transform="translate(817.990234 0.78125)"/>
     <use xlink:href="#DejaVuSans-37" transform="translate(921.261719 0.78125)"/>
     <use xlink:href="#DejaVuSans-32" transform="translate(984.884766 0.78125)"/>
    </g>
   </g>
   <g id="text_17">
    <!-- $-13.2x_1 + 5.7x_2 = 305$ -->
    <g transform="translate(256.584802 339.190864) rotate(-15) scale(0.1 -0.1)">
     <defs>
      <path id="DejaVuSans-35" d="M 691 4666 
L 3169 4666 
L 3169 4134 
L 1269 4134 
L 1269 2991 
Q 1406 3038 1543 3061 
Q 1681 3084 1819 3084 
Q 2600 3084 3056 2656 
Q 3513 2228 3513 1497 
Q 3513 744 3044 326 
Q 2575 -91 1722 -91 
Q 1428 -91 1123 -41 
Q 819 9 494 109 
L 494 744 
Q 775 591 1075 516 
Q 1375 441 1709 441 
Q 2250 441 2565 725 
Q 2881 1009 2881 1497 
Q 2881 1984 2565 2268 
Q 2250 2553 1709 2553 
Q 1456 2553 1204 2497 
Q 953 2441 691 2322 
L 691 4666 
z
" transform="scale(0.015625)"/>
     </defs>
     <use xlink:href="#DejaVuSans-2212" transform="translate(0 0.78125)"/>
     <use xlink:href="#DejaVuSans-31" transform="translate(83.789062 0.78125)"/>
     <use xlink:href="#DejaVuSans-33" transform="translate(147.412109 0.78125)"/>
     <use xlink:href="#DejaVuSans-2e" transform="translate(211.035156 0.78125)"/>
     <use xlink:href="#DejaVuSans-32" transform="translate(237.322266 0.78125)"/>
     <use xlink:href="#DejaVuSans-Oblique-78" transform="translate(300.945312 0.78125)"/>
     <use xlink:href="#DejaVuSans-31" transform="translate(360.125 -15.625) scale(0.7)"/>
     <use xlink:href="#DejaVuSans-2b" transform="translate(426.87793 0.78125)"/>
     <use xlink:href="#DejaVuSans-35" transform="translate(530.149414 0.78125)"/>
     <use xlink:href="#DejaVuSans-2e" transform="translate(593.772461 0.78125)"/>
     <use xlink:href="#DejaVuSans-37" transform="translate(617.80957 0.78125)"/>
     <use xlink:href="#DejaVuSans-Oblique-78" transform="translate(681.432617 0.78125)"/>
     <use xlink:href="#DejaVuSans-32" transform="translate(740.612305 -15.625) scale(0.7)"/>
     <use xlink:href="#DejaVuSans-3d" transform="translate(807.365234 0.78125)"/>
     <use xlink:href="#DejaVuSans-33" transform="translate(910.636719 0.78125)"/>
     <use xlink:href="#DejaVuSans-30" transform="translate(974.259766 0.78125)"/>
     <use xlink:href="#DejaVuSans-35" transform="translate(1037.882812 0.78125)"/>
    </g>
   </g>
   <g id="text_18">
    <!-- intersection point of f0 and f1 -->
    <g transform="translate(376.363636 203.04) scale(0.1 -0.1)">
     <defs>
      <path id="DejaVuSans-69" d="M 603 3500 
L 1178 3500 
L 1178 0 
L 603 0 
L 603 3500 
z
M 603 4863 
L 1178 4863 
L 1178 4134 
L 603 4134 
L 603 4863 
z
" transform="scale(0.015625)"/>
      <path id="DejaVuSans-6e" d="M 3513 2113 
L 3513 0 
L 2938 0 
L 2938 2094 
Q 2938 2591 2744 2837 
Q 2550 3084 2163 3084 
Q 1697 3084 1428 2787 
Q 1159 2491 1159 1978 
L 1159 0 
L 581 0 
L 581 3500 
L 1159 3500 
L 1159 2956 
Q 1366 3272 1645 3428 
Q 1925 3584 2291 3584 
Q 2894 3584 3203 3211 
Q 3513 2838 3513 2113 
z
" transform="scale(0.015625)"/>
      <path id="DejaVuSans-74" d="M 1172 4494 
L 1172 3500 
L 2356 3500 
L 2356 3053 
L 1172 3053 
L 1172 1153 
Q 1172 725 1289 603 
Q 1406 481 1766 481 
L 2356 481 
L 2356 0 
L 1766 0 
Q 1100 0 847 248 
Q 594 497 594 1153 
L 594 3053 
L 172 3053 
L 172 3500 
L 594 3500 
L 594 4494 
L 1172 4494 
z
" transform="scale(0.015625)"/>
      <path id="DejaVuSans-65" d="M 3597 1894 
L 3597 1613 
L 953 1613 
Q 991 1019 1311 708 
Q 1631 397 2203 397 
Q 2534 397 2845 478 
Q 3156 559 3463 722 
L 3463 178 
Q 3153 47 2828 -22 
Q 2503 -91 2169 -91 
Q 1331 -91 842 396 
Q 353 884 353 1716 
Q 353 2575 817 3079 
Q 1281 3584 2069 3584 
Q 2775 3584 3186 3129 
Q 3597 2675 3597 1894 
z
M 3022 2063 
Q 3016 2534 2758 2815 
Q 2500 3097 2075 3097 
Q 1594 3097 1305 2825 
Q 1016 2553 972 2059 
L 3022 2063 
z
" transform="scale(0.015625)"/>
      <path id="DejaVuSans-72" d="M 2631 2963 
Q 2534 3019 2420 3045 
Q 2306 3072 2169 3072 
Q 1681 3072 1420 2755 
Q 1159 2438 1159 1844 
L 1159 0 
L 581 0 
L 581 3500 
L 1159 3500 
L 1159 2956 
Q 1341 3275 1631 3429 
Q 1922 3584 2338 3584 
Q 2397 3584 2469 3576 
Q 2541 3569 2628 3553 
L 2631 2963 
z
" transform="scale(0.015625)"/>
      <path id="DejaVuSans-73" d="M 2834 3397 
L 2834 2853 
Q 2591 2978 2328 3040 
Q 2066 3103 1784 3103 
Q 1356 3103 1142 2972 
Q 928 2841 928 2578 
Q 928 2378 1081 2264 
Q 1234 2150 1697 2047 
L 1894 2003 
Q 2506 1872 2764 1633 
Q 3022 1394 3022 966 
Q 3022 478 2636 193 
Q 2250 -91 1575 -91 
Q 1294 -91 989 -36 
Q 684 19 347 128 
L 347 722 
Q 666 556 975 473 
Q 1284 391 1588 391 
Q 1994 391 2212 530 
Q 2431 669 2431 922 
Q 2431 1156 2273 1281 
Q 2116 1406 1581 1522 
L 1381 1569 
Q 847 1681 609 1914 
Q 372 2147 372 2553 
Q 372 3047 722 3315 
Q 1072 3584 1716 3584 
Q 2034 3584 2315 3537 
Q 2597 3491 2834 3397 
z
" transform="scale(0.015625)"/>
      <path id="DejaVuSans-63" d="M 3122 3366 
L 3122 2828 
Q 2878 2963 2633 3030 
Q 2388 3097 2138 3097 
Q 1578 3097 1268 2742 
Q 959 2388 959 1747 
Q 959 1106 1268 751 
Q 1578 397 2138 397 
Q 2388 397 2633 464 
Q 2878 531 3122 666 
L 3122 134 
Q 2881 22 2623 -34 
Q 2366 -91 2075 -91 
Q 1284 -91 818 406 
Q 353 903 353 1747 
Q 353 2603 823 3093 
Q 1294 3584 2113 3584 
Q 2378 3584 2631 3529 
Q 2884 3475 3122 3366 
z
" transform="scale(0.015625)"/>
      <path id="DejaVuSans-6f" d="M 1959 3097 
Q 1497 3097 1228 2736 
Q 959 2375 959 1747 
Q 959 1119 1226 758 
Q 1494 397 1959 397 
Q 2419 397 2687 759 
Q 2956 1122 2956 1747 
Q 2956 2369 2687 2733 
Q 2419 3097 1959 3097 
z
M 1959 3584 
Q 2709 3584 3137 3096 
Q 3566 2609 3566 1747 
Q 3566 888 3137 398 
Q 2709 -91 1959 -91 
Q 1206 -91 779 398 
Q 353 888 353 1747 
Q 353 2609 779 3096 
Q 1206 3584 1959 3584 
z
" transform="scale(0.015625)"/>
      <path id="DejaVuSans-20" transform="scale(0.015625)"/>
      <path id="DejaVuSans-70" d="M 1159 525 
L 1159 -1331 
L 581 -1331 
L 581 3500 
L 1159 3500 
L 1159 2969 
Q 1341 3281 1617 3432 
Q 1894 3584 2278 3584 
Q 2916 3584 3314 3078 
Q 3713 2572 3713 1747 
Q 3713 922 3314 415 
Q 2916 -91 2278 -91 
Q 1894 -91 1617 61 
Q 1341 213 1159 525 
z
M 3116 1747 
Q 3116 2381 2855 2742 
Q 2594 3103 2138 3103 
Q 1681 3103 1420 2742 
Q 1159 2381 1159 1747 
Q 1159 1113 1420 752 
Q 1681 391 2138 391 
Q 2594 391 2855 752 
Q 3116 1113 3116 1747 
z
" transform="scale(0.015625)"/>
      <path id="DejaVuSans-66" d="M 2375 4863 
L 2375 4384 
L 1825 4384 
Q 1516 4384 1395 4259 
Q 1275 4134 1275 3809 
L 1275 3500 
L 2222 3500 
L 2222 3053 
L 1275 3053 
L 1275 0 
L 697 0 
L 697 3053 
L 147 3053 
L 147 3500 
L 697 3500 
L 697 3744 
Q 697 4328 969 4595 
Q 1241 4863 1831 4863 
L 2375 4863 
z
" transform="scale(0.015625)"/>
      <path id="DejaVuSans-61" d="M 2194 1759 
Q 1497 1759 1228 1600 
Q 959 1441 959 1056 
Q 959 750 1161 570 
Q 1363 391 1709 391 
Q 2188 391 2477 730 
Q 2766 1069 2766 1631 
L 2766 1759 
L 2194 1759 
z
M 3341 1997 
L 3341 0 
L 2766 0 
L 2766 531 
Q 2569 213 2275 61 
Q 1981 -91 1556 -91 
Q 1019 -91 701 211 
Q 384 513 384 1019 
Q 384 1609 779 1909 
Q 1175 2209 1959 2209 
L 2766 2209 
L 2766 2266 
Q 2766 2663 2505 2880 
Q 2244 3097 1772 3097 
Q 1472 3097 1187 3025 
Q 903 2953 641 2809 
L 641 3341 
Q 956 3463 1253 3523 
Q 1550 3584 1831 3584 
Q 2591 3584 2966 3190 
Q 3341 2797 3341 1997 
z
" transform="scale(0.015625)"/>
      <path id="DejaVuSans-64" d="M 2906 2969 
L 2906 4863 
L 3481 4863 
L 3481 0 
L 2906 0 
L 2906 525 
Q 2725 213 2448 61 
Q 2172 -91 1784 -91 
Q 1150 -91 751 415 
Q 353 922 353 1747 
Q 353 2572 751 3078 
Q 1150 3584 1784 3584 
Q 2172 3584 2448 3432 
Q 2725 3281 2906 2969 
z
M 947 1747 
Q 947 1113 1208 752 
Q 1469 391 1925 391 
Q 2381 391 2643 752 
Q 2906 1113 2906 1747 
Q 2906 2381 2643 2742 
Q 2381 3103 1925 3103 
Q 1469 3103 1208 2742 
Q 947 2381 947 1747 
z
" transform="scale(0.015625)"/>
     </defs>
     <use xlink:href="#DejaVuSans-69"/>
     <use xlink:href="#DejaVuSans-6e" x="27.783203"/>
     <use xlink:href="#DejaVuSans-74" x="91.162109"/>
     <use xlink:href="#DejaVuSans-65" x="130.371094"/>
     <use xlink:href="#DejaVuSans-72" x="191.894531"/>
     <use xlink:href="#DejaVuSans-73" x="233.007812"/>
     <use xlink:href="#DejaVuSans-65" x="285.107422"/>
     <use xlink:href="#DejaVuSans-63" x="346.630859"/>
     <use xlink:href="#DejaVuSans-74" x="401.611328"/>
     <use xlink:href="#DejaVuSans-69" x="440.820312"/>
     <use xlink:href="#DejaVuSans-6f" x="468.603516"/>
     <use xlink:href="#DejaVuSans-6e" x="529.785156"/>
     <use xlink:href="#DejaVuSans-20" x="593.164062"/>
     <use xlink:href="#DejaVuSans-70" x="624.951172"/>
     <use xlink:href="#DejaVuSans-6f" x="688.427734"/>
     <use xlink:href="#DejaVuSans-69" x="749.609375"/>
     <use xlink:href="#DejaVuSans-6e" x="777.392578"/>
     <use xlink:href="#DejaVuSans-74" x="840.771484"/>
     <use xlink:href="#DejaVuSans-20" x="879.980469"/>
     <use xlink:href="#DejaVuSans-6f" x="911.767578"/>
     <use xlink:href="#DejaVuSans-66" x="972.949219"/>
     <use xlink:href="#DejaVuSans-20" x="1008.154297"/>
     <use xlink:href="#DejaVuSans-66" x="1039.941406"/>
     <use xlink:href="#DejaVuSans-30" x="1075.146484"/>
     <use xlink:href="#DejaVuSans-20" x="1138.769531"/>
     <use xlink:href="#DejaVuSans-61" x="1170.556641"/>
     <use xlink:href="#DejaVuSans-6e" x="1231.835938"/>
     <use xlink:href="#DejaVuSans-64" x="1295.214844"/>
     <use xlink:href="#DejaVuSans-20" x="1358.691406"/>
     <use xlink:href="#DejaVuSans-66" x="1390.478516"/>
     <use xlink:href="#DejaVuSans-31" x="1425.683594"/>
    </g>
   </g>
   <g id="text_19">
    <!-- intersection point of f1 and f2 -->
    <g transform="translate(92.290909 233.28) scale(0.1 -0.1)">
     <use xlink:href="#DejaVuSans-69"/>
     <use xlink:href="#DejaVuSans-6e" x="27.783203"/>
     <use xlink:href="#DejaVuSans-74" x="91.162109"/>
     <use xlink:href="#DejaVuSans-65" x="130.371094"/>
     <use xlink:href="#DejaVuSans-72" x="191.894531"/>
     <use xlink:href="#DejaVuSans-73" x="233.007812"/>
     <use xlink:href="#DejaVuSans-65" x="285.107422"/>
     <use xlink:href="#DejaVuSans-63" x="346.630859"/>
     <use xlink:href="#DejaVuSans-74" x="401.611328"/>
     <use xlink:href="#DejaVuSans-69" x="440.820312"/>
     <use xlink:href="#DejaVuSans-6f" x="468.603516"/>
     <use xlink:href="#DejaVuSans-6e" x="529.785156"/>
     <use xlink:href="#DejaVuSans-20" x="593.164062"/>
     <use xlink:href="#DejaVuSans-70" x="624.951172"/>
     <use xlink:href="#DejaVuSans-6f" x="688.427734"/>
     <use xlink:href="#DejaVuSans-69" x="749.609375"/>
     <use xlink:href="#DejaVuSans-6e" x="777.392578"/>
     <use xlink:href="#DejaVuSans-74" x="840.771484"/>
     <use xlink:href="#DejaVuSans-20" x="879.980469"/>
     <use xlink:href="#DejaVuSans-6f" x="911.767578"/>
     <use xlink:href="#DejaVuSans-66" x="972.949219"/>
     <use xlink:href="#DejaVuSans-20" x="1008.154297"/>
     <use xlink:href="#DejaVuSans-66" x="1039.941406"/>
     <use xlink:href="#DejaVuSans-31" x="1075.146484"/>
     <use xlink:href="#DejaVuSans-20" x="1138.769531"/>
     <use xlink:href="#DejaVuSans-61" x="1170.556641"/>
     <use xlink:href="#DejaVuSans-6e" x="1231.835938"/>
     <use xlink:href="#DejaVuSans-64" x="1295.214844"/>
     <use xlink:href="#DejaVuSans-20" x="1358.691406"/>
     <use xlink:href="#DejaVuSans-66" x="1390.478516"/>
     <use xlink:href="#DejaVuSans-32" x="1425.683594"/>
    </g>
   </g>
   <g id="text_20">
    <!-- intersection point of f0 and f2 -->
    <g transform="translate(214.036364 112.32) scale(0.1 -0.1)">
     <use xlink:href="#DejaVuSans-69"/>
     <use xlink:href="#DejaVuSans-6e" x="27.783203"/>
     <use xlink:href="#DejaVuSans-74" x="91.162109"/>
     <use xlink:href="#DejaVuSans-65" x="130.371094"/>
     <use xlink:href="#DejaVuSans-72" x="191.894531"/>
     <use xlink:href="#DejaVuSans-73" x="233.007812"/>
     <use xlink:href="#DejaVuSans-65" x="285.107422"/>
     <use xlink:href="#DejaVuSans-63" x="346.630859"/>
     <use xlink:href="#DejaVuSans-74" x="401.611328"/>
     <use xlink:href="#DejaVuSans-69" x="440.820312"/>
     <use xlink:href="#DejaVuSans-6f" x="468.603516"/>
     <use xlink:href="#DejaVuSans-6e" x="529.785156"/>
     <use xlink:href="#DejaVuSans-20" x="593.164062"/>
     <use xlink:href="#DejaVuSans-70" x="624.951172"/>
     <use xlink:href="#DejaVuSans-6f" x="688.427734"/>
     <use xlink:href="#DejaVuSans-69" x="749.609375"/>
     <use xlink:href="#DejaVuSans-6e" x="777.392578"/>
     <use xlink:href="#DejaVuSans-74" x="840.771484"/>
     <use xlink:href="#DejaVuSans-20" x="879.980469"/>
     <use xlink:href="#DejaVuSans-6f" x="911.767578"/>
     <use xlink:href="#DejaVuSans-66" x="972.949219"/>
     <use xlink:href="#DejaVuSans-20" x="1008.154297"/>
     <use xlink:href="#DejaVuSans-66" x="1039.941406"/>
     <use xlink:href="#DejaVuSans-30" x="1075.146484"/>
     <use xlink:href="#DejaVuSans-20" x="1138.769531"/>
     <use xlink:href="#DejaVuSans-61" x="1170.556641"/>
     <use xlink:href="#DejaVuSans-6e" x="1231.835938"/>
     <use xlink:href="#DejaVuSans-64" x="1295.214844"/>
     <use xlink:href="#DejaVuSans-20" x="1358.691406"/>
     <use xlink:href="#DejaVuSans-66" x="1390.478516"/>
     <use xlink:href="#DejaVuSans-32" x="1425.683594"/>
    </g>
   </g>
   <g id="text_21">
    <!-- All lines -->
    <g transform="translate(271.90125 45.84) scale(0.12 -0.12)">
     <defs>
      <path id="DejaVuSans-41" d="M 2188 4044 
L 1331 1722 
L 3047 1722 
L 2188 4044 
z
M 1831 4666 
L 2547 4666 
L 4325 0 
L 3669 0 
L 3244 1197 
L 1141 1197 
L 716 0 
L 50 0 
L 1831 4666 
z
" transform="scale(0.015625)"/>
      <path id="DejaVuSans-6c" d="M 603 4863 
L 1178 4863 
L 1178 0 
L 603 0 
L 603 4863 
z
" transform="scale(0.015625)"/>
     </defs>
     <use xlink:href="#DejaVuSans-41"/>
     <use xlink:href="#DejaVuSans-6c" x="68.408203"/>
     <use xlink:href="#DejaVuSans-6c" x="96.191406"/>
     <use xlink:href="#DejaVuSans-20" x="123.974609"/>
     <use xlink:href="#DejaVuSans-6c" x="155.761719"/>
     <use xlink:href="#DejaVuSans-69" x="183.544922"/>
     <use xlink:href="#DejaVuSans-6e" x="211.328125"/>
     <use xlink:href="#DejaVuSans-65" x="274.707031"/>
     <use xlink:href="#DejaVuSans-73" x="336.230469"/>
    </g>
   </g>
   <g id="legend_1">
    <g id="patch_10">
     <path d="M 79 103.874375 
L 119.3 103.874375 
Q 121.3 103.874375 121.3 101.874375 
L 121.3 58.84 
Q 121.3 56.84 119.3 56.84 
L 79 56.84 
Q 77 56.84 77 58.84 
L 77 101.874375 
Q 77 103.874375 79 103.874375 
z
" style="fill: #ffffff; opacity: 0.8; stroke: #cccccc; stroke-linejoin: miter"/>
    </g>
    <g id="line2d_31">
     <path d="M 81 64.938437 
L 91 64.938437 
L 101 64.938437 
" style="fill: none; stroke-dasharray: 1.5,2.475; stroke-dashoffset: 0; stroke: #48d1cc; stroke-width: 1.5"/>
    </g>
    <g id="text_22">
     <!-- $f_0$ -->
     <g transform="translate(109 68.438437) scale(0.1 -0.1)">
      <defs>
       <path id="DejaVuSans-Oblique-66" d="M 3059 4863 
L 2969 4384 
L 2419 4384 
Q 2106 4384 1964 4261 
Q 1822 4138 1753 3809 
L 1691 3500 
L 2638 3500 
L 2553 3053 
L 1606 3053 
L 1013 0 
L 434 0 
L 1031 3053 
L 481 3053 
L 563 3500 
L 1113 3500 
L 1159 3744 
Q 1278 4363 1576 4613 
Q 1875 4863 2516 4863 
L 3059 4863 
z
" transform="scale(0.015625)"/>
      </defs>
      <use xlink:href="#DejaVuSans-Oblique-66" transform="translate(0 0.015625)"/>
      <use xlink:href="#DejaVuSans-30" transform="translate(35.205078 -16.390625) scale(0.7)"/>
     </g>
    </g>
    <g id="line2d_32">
     <path d="M 81 79.616562 
L 91 79.616562 
L 101 79.616562 
" style="fill: none; stroke-dasharray: 5.55,2.4; stroke-dashoffset: 0; stroke: #ff4500; stroke-width: 1.5"/>
    </g>
    <g id="text_23">
     <!-- $f_1$ -->
     <g transform="translate(109 83.116562) scale(0.1 -0.1)">
      <use xlink:href="#DejaVuSans-Oblique-66" transform="translate(0 0.015625)"/>
      <use xlink:href="#DejaVuSans-31" transform="translate(35.205078 -16.390625) scale(0.7)"/>
     </g>
    </g>
    <g id="line2d_33">
     <path d="M 81 94.294687 
L 91 94.294687 
L 101 94.294687 
" style="fill: none; stroke-dasharray: 9.6,2.4,1.5,2.4; stroke-dashoffset: 0; stroke: #f0e68c; stroke-width: 1.5"/>
    </g>
    <g id="text_24">
     <!-- $f_2$ -->
     <g transform="translate(109 97.794687) scale(0.1 -0.1)">
      <use xlink:href="#DejaVuSans-Oblique-66" transform="translate(0 0.015625)"/>
      <use xlink:href="#DejaVuSans-32" transform="translate(35.205078 -16.390625) scale(0.7)"/>
     </g>
    </g>
   </g>
  </g>
 </g>
 <defs>
  <clipPath id="pd8cee593c2">
   <rect x="72" y="51.84" width="446.4" height="332.64"/>
  </clipPath>
 </defs>
</svg>
